<svg id="Group_77" data-name="Group 77" xmlns="http://www.w3.org/2000/svg" xmlns:xlink="http://www.w3.org/1999/xlink" width="247.845" height="55.605" viewBox="0 0 247.845 55.605">
  <defs>
    <clipPath id="clip-path">
      <rect id="Rectangle_50" data-name="Rectangle 50" width="247.845" height="55.605" fill="#00303c"/>
    </clipPath>
  </defs>
  <g id="Group_77-2" data-name="Group 77" clip-path="url(#clip-path)">
    <path id="Path_198" data-name="Path 198" d="M142.644,47.487a9.825,9.825,0,0,1,10.11-10.11,8.91,8.91,0,0,1,8,4.4l-2.931,1.494a5.863,5.863,0,0,0-5.069-2.843c-3.722,0-6.593,2.959-6.593,7.062s2.871,7.062,6.593,7.062a5.8,5.8,0,0,0,5.069-2.843l2.931,1.494a8.946,8.946,0,0,1-8,4.4,9.825,9.825,0,0,1-10.11-10.11" transform="translate(-75.121 -19.684)" fill="#00303c"/>
    <path id="Path_199" data-name="Path 199" d="M200.313,49.076H190.145V57.6h-3.429V38.058h3.429v8h10.168v-8h3.429V57.6h-3.429Z" transform="translate(-98.331 -20.042)" fill="#00303c"/>
    <rect id="Rectangle_48" data-name="Rectangle 48" width="3.429" height="19.546" transform="translate(109.57 18.015)" fill="#00303c"/>
    <path id="Path_200" data-name="Path 200" d="M247.5,38.057h3.429V54.585h8.615V57.6H247.5Z" transform="translate(-130.343 -20.042)" fill="#00303c"/>
    <path id="Path_201" data-name="Path 201" d="M279.5,38.057h3.429V54.585h8.615V57.6H279.5Z" transform="translate(-147.196 -20.042)" fill="#00303c"/>
    <path id="Path_202" data-name="Path 202" d="M311.506,38.057H324.9v3.019h-9.963v5.069h9.758v3.018h-9.758v5.421H324.9V57.6H311.506Z" transform="translate(-164.05 -20.042)" fill="#00303c"/>
    <path id="Path_203" data-name="Path 203" d="M354.05,50.306h-3.4v7.3h-3.429V38.057h8.586c3.868,0,6.388,2.52,6.388,6.125a5.48,5.48,0,0,1-4.63,5.743l4.777,7.678h-3.956Zm1.29-9.231h-4.689v6.212h4.689a3.114,3.114,0,1,0,0-6.212" transform="translate(-182.86 -20.042)" fill="#00303c"/>
    <path id="Path_204" data-name="Path 204" d="M395.609,43.186,391.83,57.6h-3.663l-5.6-19.546h3.839l3.809,15.062,4.044-15.062h2.725l4.044,15.062,3.78-15.062h3.839L403.082,57.6h-3.663Z" transform="translate(-201.474 -20.042)" fill="#00303c"/>
    <rect id="Rectangle_49" data-name="Rectangle 49" width="3.429" height="19.546" transform="translate(209.459 18.015)" fill="#00303c"/>
    <path id="Path_205" data-name="Path 205" d="M457.764,51.886a8.432,8.432,0,0,0,6.183,2.7c2.813,0,3.927-1.377,3.927-2.666,0-1.758-2.08-2.286-4.454-2.9-3.194-.791-6.945-1.729-6.945-5.861,0-3.224,2.843-5.714,7.121-5.714a10.169,10.169,0,0,1,7.326,2.725l-1.964,2.55a7.945,7.945,0,0,0-5.655-2.227c-2.022,0-3.311.967-3.311,2.433,0,1.523,1.992,2.022,4.308,2.607,3.223.821,7.062,1.817,7.062,6.066,0,3.253-2.285,6.037-7.56,6.037a10.454,10.454,0,0,1-7.941-3.107Z" transform="translate(-240.072 -19.717)" fill="#00303c"/>
    <path id="Path_206" data-name="Path 206" d="M495.289,38.057h13.392v3.019h-9.963v5.069h9.758v3.018h-9.758v5.421h9.963V57.6H495.289Z" transform="translate(-260.836 -20.042)" fill="#00303c"/>
    <path id="Path_207" data-name="Path 207" d="M47.138,16.972h0a3.624,3.624,0,0,1-2.9-1.446A20.531,20.531,0,0,0,18.509,9.508l0,0a20.572,20.572,0,0,0-5.665,4.259l0,0a20.737,20.737,0,0,0-4.3,6.965,20.424,20.424,0,0,0-.86,3.07c-.012.055-.02.107-.032.162A20.684,20.684,0,0,0,7.289,27.8a20.39,20.39,0,0,0,.222,3.007,1.214,1.214,0,0,0,.024.162A20.315,20.315,0,0,0,9.892,37.81a20.553,20.553,0,0,0,12.2,9.7l-4.913-9.7-1.688-3.336-.052-.095-.258-.507-.024-.047a14.309,14.309,0,0,1-1-2.853c-.008-.055-.02-.111-.032-.162a14.089,14.089,0,0,1,.206-6.838c.016-.055.032-.111.048-.162a13.833,13.833,0,0,1,1.688-3.645l1.846,3.645.083.162,3.462,6.838.079.162,3.463,6.838,2.008,3.966,0,0,3.233,6.39L33.7,54.975a27.746,27.746,0,0,1-5.895.63c-.551,0-1.093-.016-1.636-.047A27.811,27.811,0,0,1,1.858,37.81a27.507,27.507,0,0,1-1.68-6.838c0-.055-.012-.111-.016-.162A27.926,27.926,0,0,1,0,27.8a28.4,28.4,0,0,1,.261-3.831l.024-.162a27.48,27.48,0,0,1,1.906-6.838,27.755,27.755,0,0,1,7.2-10s0,0,0,0a27.7,27.7,0,0,1,5.816-3.962,0,0,0,0,0,0,0A27.348,27.348,0,0,1,21.84.646,27.65,27.65,0,0,1,27.8,0c.523,0,1.042.016,1.557.044A27.759,27.759,0,0,1,50.083,11.171a3.644,3.644,0,0,1-2.945,5.8" fill="#00303c"/>
    <path id="Path_208" data-name="Path 208" d="M70.031,64.037v0a27.928,27.928,0,0,1-5.82,3.946l-3.3-6.5-2.943-5.82L56.709,53.17l-3.463-6.838-.079-.162L49.7,39.333l-.083-.162-3.463-6.838-.832-1.644a13.893,13.893,0,0,1,6.346-1.521c.238,0,.475.008.713.02l1.593,3.146,3.458,6.838h0l.079.162,3.463,6.838.083.162,2.293,4.528v0l1.169,2.306,2.06,4.069v0Z" transform="translate(-23.871 -15.36)" fill="#00303c"/>
    <path id="Path_209" data-name="Path 209" d="M108.962,53.611a3.823,3.823,0,1,1-3.823-3.823,3.823,3.823,0,0,1,3.823,3.823" transform="translate(-53.356 -26.22)" fill="#00303c"/>
  </g>
</svg>
